# xmcd
#
# Track frame offsets:
#	150
#	17577
#	35608
#	54432
#	67921
#	86250
#	99833
#	117996
#	131864
#	147440
#	164132
#	179543
#	197721
#	219126
#
# Disc length: 3141 seconds
#
# Revision: 1
# Processed by: cddbd v1.5.1PL0 Copyright (c) Steve Scherf et al.
# Submitted via: audiograbber 1.83.01
#
DISCID=c20c430e
DTITLE=Various Artist - CDX 356
DYEAR=2004
DGENRE=Country
TTITLE0=Rascal Flats - Bless The Broken Road
TTITLE1=She Daisy - Come Home Soon
TTITLE2=Amy Dalley - I Would Cry
TTITLE3=TG Sheppard - Misty Blue
TTITLE4=Keni Thomas - Not Me
TTITLE5=Alison Krauss - Restless
TTITLE6=Keith Urban - Your My Better Half
TTITLE7=Jules Rancourt - Conservate State Of Mind
TTITLE8=Brandon Silveira - Heaven Needs Angels
TTITLE9=Ron Williams - Such A Natural Thing
TTITLE10=Well Hungarians - Rock And Roll Singer
TTITLE11=Dyers Daughters - My Lucky Stars And Stripes
TTITLE12=Chely Wright - Bumper Of My SUV
TTITLE13=Chely Wright - Letter from [Spoken Word]
EXTD=
EXTT0=
EXTT1=
EXTT2=
EXTT3=
EXTT4=
EXTT5=
EXTT6=
EXTT7=
EXTT8=
EXTT9=
EXTT10=
EXTT11=
EXTT12=
EXTT13=
PLAYORDER=
